<svg xmlns="http://www.w3.org/2000/svg" viewBox="0 0 32 32" role="img" aria-label="The Daily Diff">
  <rect width="32" height="32" rx="6" fill="#f8f4e8"/>
  <rect x="1.5" y="1.5" width="29" height="29" rx="5" fill="none" stroke="#8a1f11" stroke-width="1.5"/>
  <path d="M8.5 14 L12 6.5 L16 13.2 Z" fill="#8a1f11"/>
  <path d="M16 13.2 L20 6.5 L23.5 14 Z" fill="#8a1f11"/>
  <path d="M10.2 12.8 L12.1 8.6 L14.6 12.6 Z" fill="#f8f4e8"/>
  <path d="M17.4 12.6 L19.9 8.6 L21.8 12.8 Z" fill="#f8f4e8"/>
  <circle cx="16" cy="19" r="8.2" fill="#8a1f11"/>
  <circle cx="16" cy="19.2" r="6.4" fill="#f8f4e8"/>
  <rect x="11.1" y="17.2" width="3.2" height="1.35" rx="0.4" fill="#8a1f11"/>
  <rect x="17.7" y="17.2" width="3.2" height="1.35" rx="0.4" fill="#8a1f11"/>
  <path d="M16 19.6 L14.7 21.3 H17.3 Z" fill="#8a1f11"/>
  <path d="M16 21.1 Q13.6 23.4 12.2 22.4" fill="none" stroke="#8a1f11" stroke-width="1.05" stroke-linecap="round"/>
  <path d="M16 21.1 Q18.4 23.4 19.8 22.4" fill="none" stroke="#8a1f11" stroke-width="1.05" stroke-linecap="round"/>
</svg>
